name rise32.9588peak41.5061fall63.4684.mot
datacolumns 19
datarows 24
range 9.35329700000000 9.39163400000000
endheader
time	ground_force1_vx	ground_force1_vy	ground_force1_vz	ground_force1_px	ground_force1_py	ground_force1_pz	ground_force2_vx	ground_force2_vy	ground_force2_vz	ground_force2_px	ground_force2_py	ground_force2_pz	ground_torque1_x	ground_torque1_y	ground_torque1_z	ground_torque2_x	ground_torque2_y	ground_torque2_z	
9.35329700000000	54.40100000000000	735.03363800000000	52.65353900000000	0.29091500000000	0.00000000000000	0.12086700000000	0.00000000000000	0.00000000000000	0.00000000000000	0.00000000000000	0.00000000000000	0.00000000000000	0.00000000000000	17.16025400000000	0.00000000000000	0.00000000000000	0.00000000000000	0.00000000000000	
9.35496700000000	53.91046300000000	737.16575399999999	52.72654000000000	0.29014000000000	0.00000000000000	0.12092000000000	0.00000000000000	0.00000000000000	0.00000000000000	0.00000000000000	0.00000000000000	0.00000000000000	0.00000000000000	17.22701600000000	0.00000000000000	0.00000000000000	0.00000000000000	0.00000000000000	
9.35662700000000	53.42595700000000	739.25054699999998	52.80444100000000	0.28939700000000	0.00000000000000	0.12097200000000	0.00000000000000	0.00000000000000	0.00000000000000	0.00000000000000	0.00000000000000	0.00000000000000	0.00000000000000	17.29791200000000	0.00000000000000	0.00000000000000	0.00000000000000	0.00000000000000	
9.35829800000000	52.94759100000000	741.28674300000000	52.88724700000000	0.28868500000000	0.00000000000000	0.12102300000000	0.00000000000000	0.00000000000000	0.00000000000000	0.00000000000000	0.00000000000000	0.00000000000000	0.00000000000000	17.37281900000000	0.00000000000000	0.00000000000000	0.00000000000000	0.00000000000000	
9.35996400000000	52.47539000000000	743.27293299999997	52.97489000000000	0.28800100000000	0.00000000000000	0.12107500000000	0.00000000000000	0.00000000000000	0.00000000000000	0.00000000000000	0.00000000000000	0.00000000000000	0.00000000000000	17.45157200000000	0.00000000000000	0.00000000000000	0.00000000000000	0.00000000000000	
9.36163400000000	52.00930300000000	745.20758799999999	53.06722800000000	0.28734400000000	0.00000000000000	0.12112600000000	0.00000000000000	0.00000000000000	0.00000000000000	0.00000000000000	0.00000000000000	0.00000000000000	0.00000000000000	17.53397300000000	0.00000000000000	0.00000000000000	0.00000000000000	0.00000000000000	
9.36330200000000	51.54920200000000	747.08907499999998	53.16405700000000	0.28671200000000	0.00000000000000	0.12117700000000	0.00000000000000	0.00000000000000	0.00000000000000	0.00000000000000	0.00000000000000	0.00000000000000	0.00000000000000	17.61979000000000	0.00000000000000	0.00000000000000	0.00000000000000	0.00000000000000	
9.36496100000000	51.09489100000000	748.91567599999996	53.26510800000000	0.28610200000000	0.00000000000000	0.12122800000000	0.00000000000000	0.00000000000000	0.00000000000000	0.00000000000000	0.00000000000000	0.00000000000000	0.00000000000000	17.70876100000000	0.00000000000000	0.00000000000000	0.00000000000000	0.00000000000000	
9.36663400000000	50.64611300000000	750.68560400000001	53.37005900000000	0.28551100000000	0.00000000000000	0.12127900000000	0.00000000000000	0.00000000000000	0.00000000000000	0.00000000000000	0.00000000000000	0.00000000000000	0.00000000000000	17.80059500000000	0.00000000000000	0.00000000000000	0.00000000000000	0.00000000000000	
9.36829700000000	50.20255000000000	752.39701800000000	53.47853400000000	0.28493900000000	0.00000000000000	0.12133100000000	0.00000000000000	0.00000000000000	0.00000000000000	0.00000000000000	0.00000000000000	0.00000000000000	0.00000000000000	17.89497600000000	0.00000000000000	0.00000000000000	0.00000000000000	0.00000000000000	
9.36996500000000	49.76383300000000	754.04804500000000	53.59011400000000	0.28438200000000	0.00000000000000	0.12138200000000	0.00000000000000	0.00000000000000	0.00000000000000	0.00000000000000	0.00000000000000	0.00000000000000	0.00000000000000	17.99156900000000	0.00000000000000	0.00000000000000	0.00000000000000	0.00000000000000	
9.37163200000000	49.32954800000000	755.63678900000002	53.70433800000000	0.28383700000000	0.00000000000000	0.12143300000000	0.00000000000000	0.00000000000000	0.00000000000000	0.00000000000000	0.00000000000000	0.00000000000000	0.00000000000000	18.09001600000000	0.00000000000000	0.00000000000000	0.00000000000000	0.00000000000000	
9.37330000000000	48.89923800000000	757.16135299999996	53.82070900000000	0.28330200000000	0.00000000000000	0.12148500000000	0.00000000000000	0.00000000000000	0.00000000000000	0.00000000000000	0.00000000000000	0.00000000000000	0.00000000000000	18.18994600000000	0.00000000000000	0.00000000000000	0.00000000000000	0.00000000000000	
9.37496500000000	48.47241400000000	758.61985500000003	53.93870300000000	0.28277400000000	0.00000000000000	0.12153700000000	0.00000000000000	0.00000000000000	0.00000000000000	0.00000000000000	0.00000000000000	0.00000000000000	0.00000000000000	18.29097300000000	0.00000000000000	0.00000000000000	0.00000000000000	0.00000000000000	
9.37663500000000	48.04855700000000	760.01044000000002	54.05777100000000	0.28225100000000	0.00000000000000	0.12159000000000	0.00000000000000	0.00000000000000	0.00000000000000	0.00000000000000	0.00000000000000	0.00000000000000	0.00000000000000	18.39270000000000	0.00000000000000	0.00000000000000	0.00000000000000	0.00000000000000	
9.37829500000000	47.62712800000000	761.33129899999994	54.17734500000000	0.28172900000000	0.00000000000000	0.12164200000000	0.00000000000000	0.00000000000000	0.00000000000000	0.00000000000000	0.00000000000000	0.00000000000000	0.00000000000000	18.49472500000000	0.00000000000000	0.00000000000000	0.00000000000000	0.00000000000000	
9.37996400000000	47.20757000000000	762.58068000000003	54.29684400000000	0.28120700000000	0.00000000000000	0.12169500000000	0.00000000000000	0.00000000000000	0.00000000000000	0.00000000000000	0.00000000000000	0.00000000000000	0.00000000000000	18.59663900000000	0.00000000000000	0.00000000000000	0.00000000000000	0.00000000000000	
9.38163400000000	46.78931700000000	763.75690499999996	54.41567800000000	0.28068200000000	0.00000000000000	0.12174900000000	0.00000000000000	0.00000000000000	0.00000000000000	0.00000000000000	0.00000000000000	0.00000000000000	0.00000000000000	18.69803300000000	0.00000000000000	0.00000000000000	0.00000000000000	0.00000000000000	
9.38330200000000	46.37179800000000	764.85838100000001	54.53325500000000	0.28015000000000	0.00000000000000	0.12180300000000	0.00000000000000	0.00000000000000	0.00000000000000	0.00000000000000	0.00000000000000	0.00000000000000	0.00000000000000	18.79849800000000	0.00000000000000	0.00000000000000	0.00000000000000	0.00000000000000	
9.38496300000000	45.95444400000000	765.88361399999997	54.64898400000000	0.27961000000000	0.00000000000000	0.12185700000000	0.00000000000000	0.00000000000000	0.00000000000000	0.00000000000000	0.00000000000000	0.00000000000000	0.00000000000000	18.89762900000000	0.00000000000000	0.00000000000000	0.00000000000000	0.00000000000000	
9.38663000000000	45.53669200000000	766.83122100000003	54.76227800000000	0.27906000000000	0.00000000000000	0.12191200000000	0.00000000000000	0.00000000000000	0.00000000000000	0.00000000000000	0.00000000000000	0.00000000000000	0.00000000000000	18.99502700000000	0.00000000000000	0.00000000000000	0.00000000000000	0.00000000000000	
9.38829900000000	45.11799200000000	767.69993899999997	54.87256300000000	0.27849500000000	0.00000000000000	0.12196700000000	0.00000000000000	0.00000000000000	0.00000000000000	0.00000000000000	0.00000000000000	0.00000000000000	0.00000000000000	19.09030000000000	0.00000000000000	0.00000000000000	0.00000000000000	0.00000000000000	
9.38996400000000	44.69781100000000	768.48863500000004	54.97927700000000	0.27791500000000	0.00000000000000	0.12202300000000	0.00000000000000	0.00000000000000	0.00000000000000	0.00000000000000	0.00000000000000	0.00000000000000	0.00000000000000	19.18306900000000	0.00000000000000	0.00000000000000	0.00000000000000	0.00000000000000	
9.39163400000000	44.27563700000000	769.19631900000002	55.08187700000000	0.27731800000000	0.00000000000000	0.12208000000000	0.00000000000000	0.00000000000000	0.00000000000000	0.00000000000000	0.00000000000000	0.00000000000000	0.00000000000000	19.27296700000000	0.00000000000000	0.00000000000000	0.00000000000000	0.00000000000000	
